<svg width="200" height="75" viewBox="0 0 200 75" fill="none" xmlns="http://www.w3.org/2000/svg">
<path d="M30.3655 21.9385C20.2599 21.9385 12.3453 37.7141 12.3453 57.8569C12.3453 65.0201 14.1117 69.4897 17.908 71.9149C21.1968 74.018 25.4957 74.1887 30.3655 74.1887C35.2353 74.1887 39.5341 74.018 42.823 71.9149C46.6193 69.4897 48.3905 65.0201 48.3905 57.8569C48.3905 37.719 40.4759 21.9385 30.3655 21.9385ZM44.9895 58.0179C44.9407 70.168 39.3926 70.7877 30.3655 70.7877C21.2993 70.7877 15.7463 70.1631 15.7463 57.852C15.7463 40.227 22.4411 25.3346 30.3655 25.3346C38.2899 25.3346 44.9846 40.227 44.9846 57.852V58.0179H44.9895Z" fill="#53E0CC"/>
<path d="M37.4847 18.6745C42.6961 17.7766 44.9212 16.547 44.9212 14.561C44.9212 12.575 42.6961 11.3454 37.4847 10.4475C33.4591 9.75463 28.1209 9.37402 22.4606 9.37402C16.8003 9.37402 11.4621 9.75463 7.43644 10.4475C2.22508 11.3454 0 12.575 0 14.561C0 16.547 2.22508 17.7766 7.43644 18.6745C11.4621 19.3673 16.8003 19.748 22.4606 19.748C28.1209 19.748 33.4542 19.3673 37.4847 18.6745ZM4.80148 14.8098C4.55262 14.7367 4.55262 14.3853 4.80148 14.3073C5.71396 14.0291 7.06071 13.7168 9.03693 13.4241C12.7503 12.8678 17.5176 12.5653 22.4606 12.5653C27.4036 12.5653 32.1709 12.8727 35.8842 13.4241C37.8507 13.7168 39.1926 14.0291 40.1051 14.3024C40.3588 14.3804 40.3588 14.7318 40.1051 14.8098C39.1926 15.0831 37.8458 15.3954 35.8842 15.6882C32.1709 16.2444 27.4036 16.547 22.4606 16.547C17.5176 16.547 12.7503 16.2396 9.03693 15.6882C7.06559 15.3954 5.71884 15.0831 4.80148 14.805V14.8098Z" fill="#53E0CC"/>
<path d="M55.5928 0.829523C53.0164 0.292772 49.6153 0 46.0142 0C42.4131 0 39.012 0.292772 36.4356 0.829523C34.274 1.27844 31.3999 2.12261 31.3999 4.22569C31.3999 6.33366 34.274 7.17294 36.4356 7.62186C39.012 8.15861 42.4131 8.45139 46.0142 8.45139C49.6153 8.45139 53.0164 8.15373 55.5928 7.62186C57.7544 7.17294 60.6285 6.32878 60.6285 4.22569C60.6285 2.11773 57.7544 1.27844 55.5928 0.829523ZM46.0142 5.46022C41.4957 5.46022 38.1386 4.99666 36.1429 4.47943C35.8842 4.41112 35.8842 4.04027 36.1429 3.97196C38.1386 3.4596 41.4957 2.99117 46.0142 2.99117C50.518 2.99117 53.8703 3.45472 55.866 3.96708C56.1344 4.03539 56.1344 4.416 55.866 4.48431C53.8703 4.99666 50.518 5.46022 46.0142 5.46022Z" fill="#53E0CC"/>
<path d="M129.908 55.3635C125.165 55.3635 121.301 51.5038 121.301 46.7609C121.301 42.0179 125.161 38.1582 129.908 38.1582C134.651 38.1582 138.511 42.0179 138.511 46.7609C138.511 51.5038 134.651 55.3635 129.908 55.3635ZM129.908 41.53C127.025 41.53 124.677 43.877 124.677 46.756C124.677 49.6398 127.025 51.9869 129.908 51.9869C132.792 51.9869 135.139 49.6398 135.139 46.756C135.139 43.8722 132.792 41.53 129.908 41.53Z" fill="#53E0CC"/>
<path d="M68.1478 38.1536C66.1814 38.1536 64.371 38.8221 62.9218 39.9395V28.3213H59.5452V47.2637H59.5696C59.8331 51.7724 63.5757 55.3638 68.1478 55.3638C72.8907 55.3638 76.7505 51.5041 76.7505 46.7611C76.7505 42.0182 72.8907 38.1585 68.1478 38.1585V38.1536ZM68.1478 51.9871C65.264 51.9871 62.9218 49.6401 62.9218 46.7611C62.9218 43.8773 65.2689 41.5302 68.1478 41.5302C71.0316 41.5302 73.3738 43.8773 73.3738 46.7611C73.3738 49.6449 71.0268 51.9871 68.1478 51.9871Z" fill="#53E0CC"/>
<path d="M150.3 38.1536C148.334 38.1536 146.523 38.8221 145.074 39.9395V28.3213H141.697V46.7611C141.697 51.5041 145.557 55.3638 150.3 55.3638C155.043 55.3638 158.903 51.5041 158.903 46.7611C158.903 42.0182 155.043 38.1585 150.3 38.1585V38.1536ZM150.3 51.9871C147.416 51.9871 145.074 49.6401 145.074 46.7562C145.074 43.8724 147.421 41.5302 150.3 41.5302C153.184 41.5302 155.531 43.8773 155.531 46.7562C155.531 49.6401 153.184 51.9871 150.3 51.9871Z" fill="#53E0CC"/>
<path d="M191.088 38.1536C189.122 38.1536 187.311 38.827 185.857 39.9395V28.3213H182.481V46.7611C182.481 51.5041 186.34 55.3638 191.083 55.3638C195.826 55.3638 199.686 51.5041 199.686 46.7611C199.686 42.0182 195.826 38.1585 191.083 38.1585L191.088 38.1536ZM191.088 51.9871C188.204 51.9871 185.857 49.6401 185.857 46.7562C185.857 43.8724 188.204 41.5302 191.088 41.5302C193.972 41.5302 196.319 43.8773 196.319 46.7562C196.319 49.6401 193.972 51.9871 191.088 51.9871Z" fill="#53E0CC"/>
<path d="M88.3101 38.2217C83.5672 38.2217 79.7075 42.0814 79.7075 46.8243C79.7075 51.5673 83.5672 55.427 88.3101 55.427C88.559 55.427 88.7932 55.4172 89.0421 55.3977C89.491 55.3587 89.9057 55.2855 90.2864 55.1879C92.731 54.534 93.8435 52.8213 93.8435 52.8213V55.1196H96.9128V46.8195C96.9128 42.0765 93.0531 38.2168 88.3101 38.2168V38.2217ZM88.3101 52.0552C85.4312 52.0552 83.0792 49.7081 83.0792 46.8243C83.0792 43.9454 85.4263 41.5935 88.3101 41.5935C91.1891 41.5935 93.541 43.9405 93.541 46.8243C93.541 49.7033 91.1939 52.0552 88.3101 52.0552Z" fill="#53E0CC"/>
<path d="M117.89 39.2764H114.513V46.8348C114.513 49.7088 112.176 52.0462 109.302 52.0462C106.428 52.0462 104.091 49.7088 104.091 46.8348V39.2764H100.714V46.8348C100.714 51.5728 104.569 55.4228 109.307 55.4228C111.268 55.4228 113.074 54.7543 114.518 53.6418V58.9312C114.518 61.8004 112.288 64.2353 109.541 64.3573C108.087 64.4061 106.735 63.9083 105.701 62.9178C104.662 61.9224 104.091 60.5854 104.091 59.1508H100.714C100.714 61.5174 101.656 63.7229 103.368 65.3576C104.984 66.9044 107.077 67.7388 109.302 67.7388C109.434 67.7388 109.565 67.7388 109.692 67.729C114.294 67.529 117.895 63.6644 117.895 58.9312V47.7278H117.846C117.875 47.4301 117.895 47.1324 117.895 46.8299V39.2715L117.89 39.2764Z" fill="#53E0CC"/>
<path d="M170.443 38.2217C165.7 38.2217 161.84 42.0814 161.84 46.8243C161.84 51.5673 165.7 55.427 170.443 55.427C170.692 55.427 170.926 55.4172 171.175 55.3977C171.624 55.3587 172.038 55.2855 172.419 55.1879C174.864 54.534 175.976 52.8213 175.976 52.8213V55.1196H179.045V46.8195C179.045 42.0765 175.186 38.2168 170.443 38.2168V38.2217ZM170.443 52.0552C167.564 52.0552 165.212 49.7081 165.212 46.8243C165.212 43.9405 167.559 41.5935 170.443 41.5935C173.322 41.5935 175.674 43.9405 175.674 46.8243C175.674 49.7033 173.327 52.0552 170.443 52.0552Z" fill="#53E0CC"/>
</svg>
